<svg width="403" height="13" viewBox="0 0 403 13" fill="none" xmlns="http://www.w3.org/2000/svg">
<path d="M1 1L33.8936 10.6343C39.1618 12.1773 44.7675 12.1377 50.0134 10.5203L72.5319 3.5777C77.976 1.89925 83.8025 1.92137 89.2337 3.6411L110.844 10.4838C116.029 12.1257 121.58 12.2218 126.82 10.7604L153.892 3.20859C159.061 1.76662 164.536 1.84062 169.665 3.42178L192.921 10.5919C198.022 12.1645 203.466 12.2463 208.611 10.8279L236.908 3.02763C241.723 1.70008 246.807 1.68509 251.63 2.9842L281.844 11.1216C286.419 12.3537 291.231 12.4049 295.831 11.2704L329.935 2.85889C334.866 1.64257 340.035 1.79056 344.889 3.28702L366.057 9.81316C372.708 11.8639 379.885 11.3636 386.188 8.41001L402 1" stroke="#D6F379" stroke-linecap="round"/>
</svg>
