<svg width="40" height="40" viewBox="0 0 40 40" fill="none" xmlns="http://www.w3.org/2000/svg">
<rect width="40" height="40" rx="10" fill="#151F37"/>
<path d="M24.6666 16.6667H23.9999V16C23.9999 15.4696 23.7892 14.9609 23.4141 14.5858C23.0391 14.2107 22.5304 14 21.9999 14H15.3333C14.8028 14 14.2941 14.2107 13.919 14.5858C13.544 14.9609 13.3333 15.4696 13.3333 16V24C13.3333 24.5304 13.544 25.0391 13.919 25.4142C14.2941 25.7893 14.8028 26 15.3333 26H24.6666C25.197 26 25.7057 25.7893 26.0808 25.4142C26.4559 25.0391 26.6666 24.5304 26.6666 24V18.6667C26.6666 18.1362 26.4559 17.6275 26.0808 17.2525C25.7057 16.8774 25.197 16.6667 24.6666 16.6667ZM15.3333 15.3333H21.9999C22.1767 15.3333 22.3463 15.4036 22.4713 15.5286C22.5963 15.6536 22.6666 15.8232 22.6666 16V16.6667H15.3333C15.1564 16.6667 14.9869 16.5964 14.8618 16.4714C14.7368 16.3464 14.6666 16.1768 14.6666 16C14.6666 15.8232 14.7368 15.6536 14.8618 15.5286C14.9869 15.4036 15.1564 15.3333 15.3333 15.3333ZM25.3333 22H24.6666C24.4898 22 24.3202 21.9298 24.1952 21.8047C24.0702 21.6797 23.9999 21.5101 23.9999 21.3333C23.9999 21.1565 24.0702 20.987 24.1952 20.8619C24.3202 20.7369 24.4898 20.6667 24.6666 20.6667H25.3333V22ZM25.3333 19.3333H24.6666C24.1362 19.3333 23.6274 19.544 23.2524 19.9191C22.8773 20.2942 22.6666 20.8029 22.6666 21.3333C22.6666 21.8638 22.8773 22.3725 23.2524 22.7475C23.6274 23.1226 24.1362 23.3333 24.6666 23.3333H25.3333V24C25.3333 24.1768 25.263 24.3464 25.138 24.4714C25.013 24.5964 24.8434 24.6667 24.6666 24.6667H15.3333C15.1564 24.6667 14.9869 24.5964 14.8618 24.4714C14.7368 24.3464 14.6666 24.1768 14.6666 24V17.8867C14.8808 17.962 15.1062 18.0003 15.3333 18H24.6666C24.8434 18 25.013 18.0702 25.138 18.1953C25.263 18.3203 25.3333 18.4899 25.3333 18.6667V19.3333Z" fill="white"/>
</svg>
