<svg width="78" height="78" viewBox="0 0 78 78" fill="none" xmlns="http://www.w3.org/2000/svg">
<path d="M44.8369 9.45788L52.8895 3.64708L54.9258 13.3663L54.9904 13.6747L55.2952 13.5951L64.9031 11.0856L63.2909 20.8841L63.2397 21.195L63.5527 21.2309L73.4184 22.3617L68.3754 30.9161L68.2154 31.1875L68.4943 31.334L77.2853 35.9524L69.4926 42.1074L69.2454 42.3026L69.4525 42.54L75.9815 50.0222L66.4916 52.9465L66.1905 53.0393L66.298 53.3355L69.6832 62.6709L59.7777 61.9696L59.4635 61.9474L59.4566 62.2623L59.241 72.1903L50.2577 67.9581L49.9727 67.8238L49.8525 68.115L46.065 77.2946L39.2173 70.1031L39 69.875L38.7827 70.1031L31.935 77.2946L28.1475 68.115L28.0273 67.8238L27.7423 67.9581L18.759 72.1903L18.5434 62.2623L18.5365 61.9474L18.2223 61.9696L8.31679 62.6709L11.7021 53.3355L11.8095 53.0393L11.5084 52.9465L2.01847 50.0222L8.54747 42.54L8.75462 42.3026L8.50738 42.1074L0.714704 35.9523L9.50568 31.334L9.78459 31.1875L9.62459 30.9161L4.58159 22.3617L14.4473 21.2309L14.7603 21.195L14.7091 20.8841L13.0969 11.0856L22.7048 13.5951L23.0096 13.6747L23.0743 13.3663L25.1105 3.64708L33.1631 9.45788L33.4186 9.64223L33.5903 9.37803L39 1.05069L44.4097 9.37803L44.5814 9.64223L44.8369 9.45788Z" fill="#D6F379" stroke="#151F37" stroke-width="0.6"/>
</svg>
